<?xml version="1.0" standalone="no"?>
 <!DOCTYPE svg PUBLIC "-//W3C//DTD SVG 1.1//EN" 
 "http://www.w3.org/Graphics/SVG/1.1/DTD/svg11.dtd"> 
<svg xmlns="http://www.w3.org/2000/svg" version="1.1" 
    width="8.22198cm" height="6.1849cm" viewBox="0 0 32370 24350 ">
<title>SVG Picture created as arduino_uno_r3_shield-F_SilkS.svg date 2018/03/11 19:11:03 </title>
  <desc>Picture generated by PCBNEW </desc>
<g style="fill:#000000; fill-opacity:1;stroke:#000000; stroke-opacity:1;
stroke-linecap:round; stroke-linejoin:round; "
 transform="translate(0 0) scale(1 1)">
</g>
<g style="fill:#000000; fill-opacity:0.0; 
stroke:#000000; stroke-width:150; stroke-opacity:1; 
stroke-linecap:round; stroke-linejoin:round;">
<circle cx="10800" cy="20075" r="630" /> 
<circle cx="31300" cy="18075" r="630" /> 
<circle cx="31300" cy="7075" r="630" /> 
<circle cx="11300" cy="1075" r="630" /> 
<path d="M31300 575
L31300 1075
" />
<path d="M30800 75
L31300 575
" />
<path d="M5300 75
L30800 75
" />
<path d="M31300 5075
L31300 1075
" />
<path d="M32300 6075
L31300 5075
" />
<path d="M32300 19075
L32300 6075
" />
<path d="M31300 20075
L32300 19075
" />
<path d="M31300 21075
L31300 20075
" />
<path d="M5300 21075
L31300 21075
" />
<path d="M5300 75
L5300 21075
" />
</g>
<g style="fill:#000000; fill-opacity:0.0; 
stroke:#000000; stroke-width:120; stroke-opacity:1; 
stroke-linecap:round; stroke-linejoin:round;">
<path d="M23100 1717
L23100 2146
L23071 2232
L23014 2289
L22928 2317
L22871 2317
" />
<path d="M23328 1717
L23700 1717
L23500 1946
L23585 1946
L23642 1975
L23671 2003
L23700 2060
L23700 2203
L23671 2260
L23642 2289
L23585 2317
L23414 2317
L23357 2289
L23328 2260
" />
<path d="M29492 2317
L29492 1717
" />
<path d="M29892 1717
L30007 1717
L30064 1746
L30121 1803
L30150 1917
L30150 2117
L30121 2232
L30064 2289
L30007 2317
L29892 2317
L29835 2289
L29778 2232
L29750 2117
L29750 1917
L29778 1803
L29835 1746
L29892 1717
" />
<path d="M30692 2317
L30407 2317
L30407 1717
" />
<path d="M16100 18717
L16100 19146
L16071 19232
L16014 19289
L15928 19317
L15871 19317
" />
<path d="M16700 19317
L16357 19317
" />
<path d="M16528 19317
L16528 18717
L16471 18803
L16414 18860
L16357 18889
" />
<path d="M20914 19317
L20914 18717
L21142 18717
L21200 18746
L21228 18775
L21257 18832
L21257 18917
L21228 18975
L21200 19003
L21142 19032
L20914 19032
" />
<path d="M21628 18717
L21742 18717
L21800 18746
L21857 18803
L21885 18917
L21885 19117
L21857 19232
L21800 19289
L21742 19317
L21628 19317
L21571 19289
L21514 19232
L21485 19117
L21485 18917
L21514 18803
L21571 18746
L21628 18717
" />
<path d="M22085 18717
L22228 19317
L22342 18889
L22457 19317
L22600 18717
" />
<path d="M22828 19003
L23028 19003
" />
<path d="M23114 19317
L22828 19317
L22828 18717
L23114 18717
" />
<path d="M23714 19317
L23514 19032
" />
<path d="M23371 19317
L23371 18717
L23600 18717
L23657 18746
L23685 18775
L23714 18832
L23714 18917
L23685 18975
L23657 19003
L23600 19032
L23371 19032
" />
<path d="M25100 18717
L25100 19146
L25071 19232
L25014 19289
L24928 19317
L24871 19317
" />
<path d="M25357 18775
L25385 18746
L25442 18717
L25585 18717
L25642 18746
L25671 18775
L25700 18832
L25700 18889
L25671 18975
L25328 19317
L25700 19317
" />
<path d="M29857 19146
L30142 19146
" />
<path d="M29800 19317
L30000 18717
L30200 19317
" />
<path d="M30400 19317
L30400 18717
L30542 18717
L30628 18746
L30685 18803
L30714 18860
L30742 18975
L30742 19060
L30714 19175
L30685 19232
L30628 19289
L30542 19317
L30400 19317
" />
<path d="M12600 1717
L12600 2146
L12571 2232
L12514 2289
L12428 2317
L12371 2317
" />
<path d="M13142 1917
L13142 2317
" />
<path d="M13000 1689
L12857 2117
L13228 2117
" />
<path d="M20321 2317
L20321 1717
" />
<path d="M20721 1717
L20835 1717
L20892 1746
L20950 1803
L20978 1917
L20978 2117
L20950 2232
L20892 2289
L20835 2317
L20721 2317
L20664 2289
L20607 2232
L20578 2117
L20578 1917
L20607 1803
L20664 1746
L20721 1717
" />
<path d="M21235 2317
L21235 1717
" />
<path d="M21235 2003
L21578 2003
" />
<path d="M21578 2317
L21578 1717
" />
</g>
<g style="fill:#000000; fill-opacity:0.0; 
stroke:#000000; stroke-width:60; stroke-opacity:1; 
stroke-linecap:round; stroke-linejoin:round;">
<path d="M24100 17236
L24100 16836
L24252 16836
L24290 16855
L24309 16875
L24328 16913
L24328 16970
L24309 17008
L24290 17027
L24252 17046
L24100 17046
" />
<path d="M24500 17236
L24500 16836
" />
<path d="M24690 17236
L24690 16836
L24919 17236
L24919 16836
" />
<path d="M25014 17275
L25319 17275
" />
<path d="M25395 17122
L25585 17122
" />
<path d="M25357 17236
L25490 16836
L25623 17236
" />
<path d="M25985 17236
L25852 17046
" />
<path d="M25757 17236
L25757 16836
L25909 16836
L25947 16855
L25966 16875
L25985 16913
L25985 16970
L25966 17008
L25947 17027
L25909 17046
L25757 17046
" />
<path d="M26385 17236
L26252 17046
" />
<path d="M26157 17236
L26157 16836
L26309 16836
L26347 16855
L26366 16875
L26385 16913
L26385 16970
L26366 17008
L26347 17027
L26309 17046
L26157 17046
" />
<path d="M26538 17122
L26728 17122
" />
<path d="M26500 17236
L26633 16836
L26766 17236
" />
<path d="M26976 17046
L26976 17236
" />
<path d="M26842 16836
L26976 17046
L27109 16836
" />
<path d="M27147 17275
L27452 17275
" />
<path d="M27509 16836
L27757 16836
L27623 16989
L27680 16989
L27719 17008
L27738 17027
L27757 17065
L27757 17160
L27738 17198
L27719 17217
L27680 17236
L27566 17236
L27528 17217
L27509 17198
" />
<path d="M27890 16836
L28157 17236
" />
<path d="M28157 16836
L27890 17236
" />
<path d="M28290 16875
L28309 16855
L28347 16836
L28442 16836
L28480 16855
L28500 16875
L28519 16913
L28519 16951
L28500 17008
L28271 17236
L28519 17236
" />
<path d="M16100 17236
L16100 16836
L16252 16836
L16290 16855
L16309 16875
L16328 16913
L16328 16970
L16309 17008
L16290 17027
L16252 17046
L16100 17046
" />
<path d="M16500 17236
L16500 16836
" />
<path d="M16690 17236
L16690 16836
L16919 17236
L16919 16836
" />
<path d="M17014 17275
L17319 17275
" />
<path d="M17395 17122
L17585 17122
" />
<path d="M17357 17236
L17490 16836
L17623 17236
" />
<path d="M17985 17236
L17852 17046
" />
<path d="M17757 17236
L17757 16836
L17909 16836
L17947 16855
L17966 16875
L17985 16913
L17985 16970
L17966 17008
L17947 17027
L17909 17046
L17757 17046
" />
<path d="M18385 17236
L18252 17046
" />
<path d="M18157 17236
L18157 16836
L18309 16836
L18347 16855
L18366 16875
L18385 16913
L18385 16970
L18366 17008
L18347 17027
L18309 17046
L18157 17046
" />
<path d="M18538 17122
L18728 17122
" />
<path d="M18500 17236
L18633 16836
L18766 17236
" />
<path d="M18976 17046
L18976 17236
" />
<path d="M18842 16836
L18976 17046
L19109 16836
" />
<path d="M19147 17275
L19452 17275
" />
<path d="M19509 16836
L19757 16836
L19623 16989
L19680 16989
L19719 17008
L19738 17027
L19757 17065
L19757 17160
L19738 17198
L19719 17217
L19680 17236
L19566 17236
L19528 17217
L19509 17198
" />
<path d="M19890 16836
L20157 17236
" />
<path d="M20157 16836
L19890 17236
" />
<path d="M20290 16875
L20309 16855
L20347 16836
L20442 16836
L20480 16855
L20500 16875
L20519 16913
L20519 16951
L20500 17008
L20271 17236
L20519 17236
" />
<path d="M8600 17236
L8600 16836
L8752 16836
L8790 16855
L8809 16875
L8828 16913
L8828 16970
L8809 17008
L8790 17027
L8752 17046
L8600 17046
" />
<path d="M9000 17236
L9000 16836
" />
<path d="M9190 17236
L9190 16836
L9419 17236
L9419 16836
" />
<path d="M9514 17275
L9819 17275
" />
<path d="M9895 17122
L10085 17122
" />
<path d="M9857 17236
L9990 16836
L10123 17236
" />
<path d="M10485 17236
L10352 17046
" />
<path d="M10257 17236
L10257 16836
L10409 16836
L10447 16855
L10466 16875
L10485 16913
L10485 16970
L10466 17008
L10447 17027
L10409 17046
L10257 17046
" />
<path d="M10885 17236
L10752 17046
" />
<path d="M10657 17236
L10657 16836
L10809 16836
L10847 16855
L10866 16875
L10885 16913
L10885 16970
L10866 17008
L10847 17027
L10809 17046
L10657 17046
" />
<path d="M11038 17122
L11228 17122
" />
<path d="M11000 17236
L11133 16836
L11266 17236
" />
<path d="M11476 17046
L11476 17236
" />
<path d="M11342 16836
L11476 17046
L11609 16836
" />
<path d="M11647 17275
L11952 17275
" />
<path d="M12009 16836
L12257 16836
L12123 16989
L12180 16989
L12219 17008
L12238 17027
L12257 17065
L12257 17160
L12238 17198
L12219 17217
L12180 17236
L12066 17236
L12028 17217
L12009 17198
" />
<path d="M12390 16836
L12657 17236
" />
<path d="M12657 16836
L12390 17236
" />
<path d="M12790 16875
L12809 16855
L12847 16836
L12942 16836
L12980 16855
L13000 16875
L13019 16913
L13019 16951
L13000 17008
L12771 17236
L13019 17236
" />
<path d="M27100 4236
L27100 3836
L27252 3836
L27290 3855
L27309 3875
L27328 3913
L27328 3970
L27309 4008
L27290 4027
L27252 4046
L27100 4046
" />
<path d="M27500 4236
L27500 3836
" />
<path d="M27690 4236
L27690 3836
L27919 4236
L27919 3836
" />
<path d="M28014 4275
L28319 4275
" />
<path d="M28395 4122
L28585 4122
" />
<path d="M28357 4236
L28490 3836
L28623 4236
" />
<path d="M28985 4236
L28852 4046
" />
<path d="M28757 4236
L28757 3836
L28909 3836
L28947 3855
L28966 3875
L28985 3913
L28985 3970
L28966 4008
L28947 4027
L28909 4046
L28757 4046
" />
<path d="M29385 4236
L29252 4046
" />
<path d="M29157 4236
L29157 3836
L29309 3836
L29347 3855
L29366 3875
L29385 3913
L29385 3970
L29366 4008
L29347 4027
L29309 4046
L29157 4046
" />
<path d="M29538 4122
L29728 4122
" />
<path d="M29500 4236
L29633 3836
L29766 4236
" />
<path d="M29976 4046
L29976 4236
" />
<path d="M29842 3836
L29976 4046
L30109 3836
" />
<path d="M30147 4275
L30452 4275
" />
<path d="M30509 3836
L30757 3836
L30623 3989
L30680 3989
L30719 4008
L30738 4027
L30757 4065
L30757 4160
L30738 4198
L30719 4217
L30680 4236
L30566 4236
L30528 4217
L30509 4198
" />
<path d="M30890 3836
L31157 4236
" />
<path d="M31157 3836
L30890 4236
" />
<path d="M31290 3875
L31309 3855
L31347 3836
L31442 3836
L31480 3855
L31500 3875
L31519 3913
L31519 3951
L31500 4008
L31271 4236
L31519 4236
" />
<path d="M22100 4236
L22100 3836
L22252 3836
L22290 3855
L22309 3875
L22328 3913
L22328 3970
L22309 4008
L22290 4027
L22252 4046
L22100 4046
" />
<path d="M22500 4236
L22500 3836
" />
<path d="M22690 4236
L22690 3836
L22919 4236
L22919 3836
" />
<path d="M23014 4275
L23319 4275
" />
<path d="M23395 4122
L23585 4122
" />
<path d="M23357 4236
L23490 3836
L23623 4236
" />
<path d="M23985 4236
L23852 4046
" />
<path d="M23757 4236
L23757 3836
L23909 3836
L23947 3855
L23966 3875
L23985 3913
L23985 3970
L23966 4008
L23947 4027
L23909 4046
L23757 4046
" />
<path d="M24385 4236
L24252 4046
" />
<path d="M24157 4236
L24157 3836
L24309 3836
L24347 3855
L24366 3875
L24385 3913
L24385 3970
L24366 4008
L24347 4027
L24309 4046
L24157 4046
" />
<path d="M24538 4122
L24728 4122
" />
<path d="M24500 4236
L24633 3836
L24766 4236
" />
<path d="M24976 4046
L24976 4236
" />
<path d="M24842 3836
L24976 4046
L25109 3836
" />
<path d="M25147 4275
L25452 4275
" />
<path d="M25509 3836
L25757 3836
L25623 3989
L25680 3989
L25719 4008
L25738 4027
L25757 4065
L25757 4160
L25738 4198
L25719 4217
L25680 4236
L25566 4236
L25528 4217
L25509 4198
" />
<path d="M25890 3836
L26157 4236
" />
<path d="M26157 3836
L25890 4236
" />
<path d="M26290 3875
L26309 3855
L26347 3836
L26442 3836
L26480 3855
L26500 3875
L26519 3913
L26519 3951
L26500 4008
L26271 4236
L26519 4236
" />
<path d="M16600 4236
L16600 3836
L16752 3836
L16790 3855
L16809 3875
L16828 3913
L16828 3970
L16809 4008
L16790 4027
L16752 4046
L16600 4046
" />
<path d="M17000 4236
L17000 3836
" />
<path d="M17190 4236
L17190 3836
L17419 4236
L17419 3836
" />
<path d="M17514 4275
L17819 4275
" />
<path d="M17895 4122
L18085 4122
" />
<path d="M17857 4236
L17990 3836
L18123 4236
" />
<path d="M18485 4236
L18352 4046
" />
<path d="M18257 4236
L18257 3836
L18409 3836
L18447 3855
L18466 3875
L18485 3913
L18485 3970
L18466 4008
L18447 4027
L18409 4046
L18257 4046
" />
<path d="M18885 4236
L18752 4046
" />
<path d="M18657 4236
L18657 3836
L18809 3836
L18847 3855
L18866 3875
L18885 3913
L18885 3970
L18866 4008
L18847 4027
L18809 4046
L18657 4046
" />
<path d="M19038 4122
L19228 4122
" />
<path d="M19000 4236
L19133 3836
L19266 4236
" />
<path d="M19476 4046
L19476 4236
" />
<path d="M19342 3836
L19476 4046
L19609 3836
" />
<path d="M19647 4275
L19952 4275
" />
<path d="M20009 3836
L20257 3836
L20123 3989
L20180 3989
L20219 4008
L20238 4027
L20257 4065
L20257 4160
L20238 4198
L20219 4217
L20180 4236
L20066 4236
L20028 4217
L20009 4198
" />
<path d="M20390 3836
L20657 4236
" />
<path d="M20657 3836
L20390 4236
" />
<path d="M20790 3875
L20809 3855
L20847 3836
L20942 3836
L20980 3855
L21000 3875
L21019 3913
L21019 3951
L21000 4008
L20771 4236
L21019 4236
" />
<path d="M11600 4236
L11600 3836
L11752 3836
L11790 3855
L11809 3875
L11828 3913
L11828 3970
L11809 4008
L11790 4027
L11752 4046
L11600 4046
" />
<path d="M12000 4236
L12000 3836
" />
<path d="M12190 4236
L12190 3836
L12419 4236
L12419 3836
" />
<path d="M12514 4275
L12819 4275
" />
<path d="M12895 4122
L13085 4122
" />
<path d="M12857 4236
L12990 3836
L13123 4236
" />
<path d="M13485 4236
L13352 4046
" />
<path d="M13257 4236
L13257 3836
L13409 3836
L13447 3855
L13466 3875
L13485 3913
L13485 3970
L13466 4008
L13447 4027
L13409 4046
L13257 4046
" />
<path d="M13885 4236
L13752 4046
" />
<path d="M13657 4236
L13657 3836
L13809 3836
L13847 3855
L13866 3875
L13885 3913
L13885 3970
L13866 4008
L13847 4027
L13809 4046
L13657 4046
" />
<path d="M14038 4122
L14228 4122
" />
<path d="M14000 4236
L14133 3836
L14266 4236
" />
<path d="M14476 4046
L14476 4236
" />
<path d="M14342 3836
L14476 4046
L14609 3836
" />
<path d="M14647 4275
L14952 4275
" />
<path d="M15009 3836
L15257 3836
L15123 3989
L15180 3989
L15219 4008
L15238 4027
L15257 4065
L15257 4160
L15238 4198
L15219 4217
L15180 4236
L15066 4236
L15028 4217
L15009 4198
" />
<path d="M15390 3836
L15657 4236
" />
<path d="M15657 3836
L15390 4236
" />
<path d="M15790 3875
L15809 3855
L15847 3836
L15942 3836
L15980 3855
L16000 3875
L16019 3913
L16019 3951
L16000 4008
L15771 4236
L16019 4236
" />
<path d="M6600 4236
L6600 3836
L6752 3836
L6790 3855
L6809 3875
L6828 3913
L6828 3970
L6809 4008
L6790 4027
L6752 4046
L6600 4046
" />
<path d="M7000 4236
L7000 3836
" />
<path d="M7190 4236
L7190 3836
L7419 4236
L7419 3836
" />
<path d="M7514 4275
L7819 4275
" />
<path d="M7895 4122
L8085 4122
" />
<path d="M7857 4236
L7990 3836
L8123 4236
" />
<path d="M8485 4236
L8352 4046
" />
<path d="M8257 4236
L8257 3836
L8409 3836
L8447 3855
L8466 3875
L8485 3913
L8485 3970
L8466 4008
L8447 4027
L8409 4046
L8257 4046
" />
<path d="M8885 4236
L8752 4046
" />
<path d="M8657 4236
L8657 3836
L8809 3836
L8847 3855
L8866 3875
L8885 3913
L8885 3970
L8866 4008
L8847 4027
L8809 4046
L8657 4046
" />
<path d="M9038 4122
L9228 4122
" />
<path d="M9000 4236
L9133 3836
L9266 4236
" />
<path d="M9476 4046
L9476 4236
" />
<path d="M9342 3836
L9476 4046
L9609 3836
" />
<path d="M9647 4275
L9952 4275
" />
<path d="M10009 3836
L10257 3836
L10123 3989
L10180 3989
L10219 4008
L10238 4027
L10257 4065
L10257 4160
L10238 4198
L10219 4217
L10180 4236
L10066 4236
L10028 4217
L10009 4198
" />
<path d="M10390 3836
L10657 4236
" />
<path d="M10657 3836
L10390 4236
" />
<path d="M10790 3875
L10809 3855
L10847 3836
L10942 3836
L10980 3855
L11000 3875
L11019 3913
L11019 3951
L11000 4008
L10771 4236
L11019 4236
" />
<path d="M6961 12775
L6561 12775
L6561 12622
L6580 12584
L6600 12565
L6638 12546
L6695 12546
L6733 12565
L6752 12584
L6771 12622
L6771 12775
" />
<path d="M6961 12375
L6561 12375
" />
<path d="M6961 12184
L6561 12184
L6961 11955
L6561 11955
" />
<path d="M7000 11860
L7000 11555
" />
<path d="M6847 11479
L6847 11289
" />
<path d="M6961 11517
L6561 11384
L6961 11251
" />
<path d="M6961 10889
L6771 11022
" />
<path d="M6961 11117
L6561 11117
L6561 10965
L6580 10927
L6600 10908
L6638 10889
L6695 10889
L6733 10908
L6752 10927
L6771 10965
L6771 11117
" />
<path d="M6961 10489
L6771 10622
" />
<path d="M6961 10717
L6561 10717
L6561 10565
L6580 10527
L6600 10508
L6638 10489
L6695 10489
L6733 10508
L6752 10527
L6771 10565
L6771 10717
" />
<path d="M6847 10336
L6847 10146
" />
<path d="M6961 10375
L6561 10241
L6961 10108
" />
<path d="M6771 9898
L6961 9898
" />
<path d="M6561 10032
L6771 9898
L6561 9765
" />
<path d="M7000 9727
L7000 9422
" />
<path d="M6561 9365
L6561 9117
L6714 9251
L6714 9194
L6733 9155
L6752 9136
L6790 9117
L6885 9117
L6923 9136
L6942 9155
L6961 9194
L6961 9308
L6942 9346
L6923 9365
" />
<path d="M6561 8984
L6961 8717
" />
<path d="M6561 8717
L6961 8984
" />
<path d="M6600 8584
L6580 8565
L6561 8527
L6561 8432
L6580 8394
L6600 8375
L6638 8355
L6676 8355
L6733 8375
L6961 8603
L6961 8355
" />
<path d="M31461 13775
L31061 13775
L31061 13622
L31080 13584
L31100 13565
L31138 13546
L31195 13546
L31233 13565
L31252 13584
L31271 13622
L31271 13775
" />
<path d="M31461 13375
L31061 13375
" />
<path d="M31461 13184
L31061 13184
L31461 12955
L31061 12955
" />
<path d="M31500 12860
L31500 12555
" />
<path d="M31347 12479
L31347 12289
" />
<path d="M31461 12517
L31061 12384
L31461 12251
" />
<path d="M31461 11889
L31271 12022
" />
<path d="M31461 12117
L31061 12117
L31061 11965
L31080 11927
L31100 11908
L31138 11889
L31195 11889
L31233 11908
L31252 11927
L31271 11965
L31271 12117
" />
<path d="M31461 11489
L31271 11622
" />
<path d="M31461 11717
L31061 11717
L31061 11565
L31080 11527
L31100 11508
L31138 11489
L31195 11489
L31233 11508
L31252 11527
L31271 11565
L31271 11717
" />
<path d="M31347 11336
L31347 11146
" />
<path d="M31461 11375
L31061 11241
L31461 11108
" />
<path d="M31271 10898
L31461 10898
" />
<path d="M31061 11032
L31271 10898
L31061 10765
" />
<path d="M31500 10727
L31500 10422
" />
<path d="M31061 10365
L31061 10117
L31214 10251
L31214 10194
L31233 10155
L31252 10136
L31290 10117
L31385 10117
L31423 10136
L31442 10155
L31461 10194
L31461 10308
L31442 10346
L31423 10365
" />
<path d="M31061 9984
L31461 9717
" />
<path d="M31061 9717
L31461 9984
" />
<path d="M31100 9584
L31080 9565
L31061 9527
L31061 9432
L31080 9394
L31100 9375
L31138 9355
L31176 9355
L31233 9375
L31461 9603
L31461 9355
" />
</g>
<g style="fill:#000000; fill-opacity:0.0; 
stroke:#000000; stroke-width:150; stroke-opacity:1; 
stroke-linecap:round; stroke-linejoin:round;">
<path d="M22800 575
L30800 575
" />
<path d="M30800 575
L30800 1575
" />
<path d="M30800 1575
L22800 1575
" />
<path d="M22800 1575
L22800 575
" />
<path d="M15800 19575
L23800 19575
" />
<path d="M23800 19575
L23800 20575
" />
<path d="M23800 20575
L15800 20575
" />
<path d="M15800 20575
L15800 19575
" />
<path d="M24800 19575
L30800 19575
" />
<path d="M30800 19575
L30800 20575
" />
<path d="M30800 20575
L24800 20575
" />
<path d="M24800 20575
L24800 19575
" />
<path d="M12200 575
L22200 575
" />
<path d="M22200 575
L22200 1575
" />
<path d="M22200 1575
L12200 1575
" />
<path d="M12200 1575
L12200 575
" />
</g>
<g style="fill:#000000; fill-opacity:0.0; 
stroke:#000000; stroke-width:50; stroke-opacity:1; 
stroke-linecap:round; stroke-linejoin:round;">
<path d="M24800 14575
L27800 14575
" />
<path d="M24800 16575
L27800 16575
" />
<path d="M24800 14575
L24800 16575
" />
<path d="M27800 16575
L27800 14575
" />
<path d="M16800 14575
L19800 14575
" />
<path d="M16800 16575
L19800 16575
" />
<path d="M16800 14575
L16800 16575
" />
<path d="M19800 16575
L19800 14575
" />
<path d="M9300 14575
L12300 14575
" />
<path d="M9300 16575
L12300 16575
" />
<path d="M9300 14575
L9300 16575
" />
<path d="M12300 16575
L12300 14575
" />
<path d="M30800 6575
L27800 6575
" />
<path d="M30800 4575
L27800 4575
" />
<path d="M30800 6575
L30800 4575
" />
<path d="M27800 4575
L27800 6575
" />
<path d="M25800 6575
L22800 6575
" />
<path d="M25800 4575
L22800 4575
" />
<path d="M25800 6575
L25800 4575
" />
<path d="M22800 4575
L22800 6575
" />
<path d="M20300 6575
L17300 6575
" />
<path d="M20300 4575
L17300 4575
" />
<path d="M20300 6575
L20300 4575
" />
<path d="M17300 4575
L17300 6575
" />
<path d="M15300 6575
L12300 6575
" />
<path d="M15300 4575
L12300 4575
" />
<path d="M15300 6575
L15300 4575
" />
<path d="M12300 4575
L12300 6575
" />
<path d="M10300 6575
L7300 6575
" />
<path d="M10300 4575
L7300 4575
" />
<path d="M10300 6575
L10300 4575
" />
<path d="M7300 4575
L7300 6575
" />
<path d="M9300 9075
L9300 12075
" />
<path d="M7300 9075
L7300 12075
" />
<path d="M9300 9075
L7300 9075
" />
<path d="M7300 12075
L9300 12075
" />
<path d="M28800 13075
L28800 10075
" />
<path d="M30800 13075
L30800 10075
" />
<path d="M28800 13075
L30800 13075
" />
<path d="M30800 10075
L28800 10075
" />
</g>
<g style="fill:#000000; fill-opacity:0.0; 
stroke:#000000; stroke-width:600; stroke-opacity:1; 
stroke-linecap:round; stroke-linejoin:round;">
<path d="M23300 875
L23300 1275
" />
<path d="M24300 875
L24300 1275
" />
<path d="M25300 875
L25300 1275
" />
<path d="M26300 875
L26300 1275
" />
<path d="M27300 875
L27300 1275
" />
<path d="M28300 875
L28300 1275
" />
<path d="M29300 875
L29300 1275
" />
<path d="M30300 875
L30300 1275
" />
<path d="M16300 19875
L16300 20275
" />
<path d="M17300 19875
L17300 20275
" />
<path d="M18300 19875
L18300 20275
" />
<path d="M19300 19875
L19300 20275
" />
<path d="M20300 19875
L20300 20275
" />
<path d="M21300 19875
L21300 20275
" />
<path d="M22300 19875
L22300 20275
" />
<path d="M23300 19875
L23300 20275
" />
<path d="M25300 19875
L25300 20275
" />
<path d="M27300 19875
L27300 20275
" />
<path d="M26300 19875
L26300 20275
" />
<path d="M28300 19875
L28300 20275
" />
<path d="M29300 19875
L29300 20275
" />
<path d="M30300 19875
L30300 20275
" />
<path d="M12700 875
L12700 1275
" />
<path d="M13700 875
L13700 1275
" />
<path d="M14700 875
L14700 1275
" />
<path d="M15700 875
L15700 1275
" />
<path d="M16700 875
L16700 1275
" />
<path d="M17700 875
L17700 1275
" />
<path d="M18700 875
L18700 1275
" />
<path d="M19700 875
L19700 1275
" />
<path d="M20700 875
L20700 1275
" />
<path d="M21700 875
L21700 1275
" />
</g>
<g style="fill:#000000; fill-opacity:0.0; 
stroke:#000000; stroke-width:39.3701; stroke-opacity:1; 
stroke-linecap:round; stroke-linejoin:round;">
</g>
<g style="fill:#000000; fill-opacity:1.0; 
stroke:#000000; stroke-width:39.3701; stroke-opacity:1; 
stroke-linecap:round; stroke-linejoin:round;">
<polyline style="fill-rule:evenodd;"
points="27693,14681
27693,15468
26906,15468
26906,14681
27693,14681
" /> 
<circle cx="26300" cy="15075" r="393.701" /> 
<circle cx="25300" cy="15075" r="393.701" /> 
<circle cx="25300" cy="16075" r="393.701" /> 
<circle cx="27300" cy="16075" r="393.701" /> 
<circle cx="26300" cy="16075" r="393.701" /> 
<polyline style="fill-rule:evenodd;"
points="19693,14681
19693,15468
18906,15468
18906,14681
19693,14681
" /> 
<circle cx="18300" cy="15075" r="393.701" /> 
<circle cx="17300" cy="15075" r="393.701" /> 
<circle cx="17300" cy="16075" r="393.701" /> 
<circle cx="19300" cy="16075" r="393.701" /> 
<circle cx="18300" cy="16075" r="393.701" /> 
<polyline style="fill-rule:evenodd;"
points="12193,14681
12193,15468
11406,15468
11406,14681
12193,14681
" /> 
<circle cx="10800" cy="15075" r="393.701" /> 
<circle cx="9800" cy="15075" r="393.701" /> 
<circle cx="9800" cy="16075" r="393.701" /> 
<circle cx="11800" cy="16075" r="393.701" /> 
<circle cx="10800" cy="16075" r="393.701" /> 
<polyline style="fill-rule:evenodd;"
points="27906,6468
27906,5681
28693,5681
28693,6468
27906,6468
" /> 
<circle cx="29300" cy="6075" r="393.701" /> 
<circle cx="30300" cy="6075" r="393.701" /> 
<circle cx="30300" cy="5075" r="393.701" /> 
<circle cx="28300" cy="5075" r="393.701" /> 
<circle cx="29300" cy="5075" r="393.701" /> 
<polyline style="fill-rule:evenodd;"
points="22906,6468
22906,5681
23693,5681
23693,6468
22906,6468
" /> 
<circle cx="24300" cy="6075" r="393.701" /> 
<circle cx="25300" cy="6075" r="393.701" /> 
<circle cx="25300" cy="5075" r="393.701" /> 
<circle cx="23300" cy="5075" r="393.701" /> 
<circle cx="24300" cy="5075" r="393.701" /> 
<polyline style="fill-rule:evenodd;"
points="17406,6468
17406,5681
18193,5681
18193,6468
17406,6468
" /> 
<circle cx="18800" cy="6075" r="393.701" /> 
<circle cx="19800" cy="6075" r="393.701" /> 
<circle cx="19800" cy="5075" r="393.701" /> 
<circle cx="17800" cy="5075" r="393.701" /> 
<circle cx="18800" cy="5075" r="393.701" /> 
<polyline style="fill-rule:evenodd;"
points="12406,6468
12406,5681
13193,5681
13193,6468
12406,6468
" /> 
<circle cx="13800" cy="6075" r="393.701" /> 
<circle cx="14800" cy="6075" r="393.701" /> 
<circle cx="14800" cy="5075" r="393.701" /> 
<circle cx="12800" cy="5075" r="393.701" /> 
<circle cx="13800" cy="5075" r="393.701" /> 
<polyline style="fill-rule:evenodd;"
points="7406,6468
7406,5681
8193,5681
8193,6468
7406,6468
" /> 
<circle cx="8800" cy="6075" r="393.701" /> 
<circle cx="9800" cy="6075" r="393.701" /> 
<circle cx="9800" cy="5075" r="393.701" /> 
<circle cx="7800" cy="5075" r="393.701" /> 
<circle cx="8800" cy="5075" r="393.701" /> 
<polyline style="fill-rule:evenodd;"
points="9193,11968
8406,11968
8406,11181
9193,11181
9193,11968
" /> 
<circle cx="8800" cy="10575" r="393.701" /> 
<circle cx="8800" cy="9575" r="393.701" /> 
<circle cx="7800" cy="9575" r="393.701" /> 
<circle cx="7800" cy="11575" r="393.701" /> 
<circle cx="7800" cy="10575" r="393.701" /> 
<polyline style="fill-rule:evenodd;"
points="28906,10181
29693,10181
29693,10968
28906,10968
28906,10181
" /> 
<circle cx="29300" cy="11575" r="393.701" /> 
<circle cx="29300" cy="12575" r="393.701" /> 
<circle cx="30300" cy="12575" r="393.701" /> 
<circle cx="30300" cy="10575" r="393.701" /> 
<circle cx="30300" cy="11575" r="393.701" /> 
</g> 
</svg>
