<?xml version="1.0" standalone="no"?>
 <!DOCTYPE svg PUBLIC "-//W3C//DTD SVG 1.1//EN" 
 "http://www.w3.org/Graphics/SVG/1.1/DTD/svg11.dtd"> 
<svg xmlns="http://www.w3.org/2000/svg" version="1.1" 
    width="8.22198cm" height="6.1849cm" viewBox="0 0 32370 24350 ">
<title>SVG Picture created as arduino_uno_r3_shield-Dessous.svg date 2018/03/11 19:11:03 </title>
  <desc>Picture generated by PCBNEW </desc>
<g style="fill:#000000; fill-opacity:1;stroke:#000000; stroke-opacity:1;
stroke-linecap:round; stroke-linejoin:round; "
 transform="translate(0 0) scale(1 1)">
</g>
<g style="fill:#000000; fill-opacity:0.0; 
stroke:#000000; stroke-width:150; stroke-opacity:1; 
stroke-linecap:round; stroke-linejoin:round;">
<circle cx="10800" cy="20075" r="630" /> 
<circle cx="31300" cy="18075" r="630" /> 
<circle cx="31300" cy="7075" r="630" /> 
<circle cx="11300" cy="1075" r="630" /> 
<path d="M31300 575
L31300 1075
" />
<path d="M30800 75
L31300 575
" />
<path d="M5300 75
L30800 75
" />
<path d="M31300 5075
L31300 1075
" />
<path d="M32300 6075
L31300 5075
" />
<path d="M32300 19075
L32300 6075
" />
<path d="M31300 20075
L32300 19075
" />
<path d="M31300 21075
L31300 20075
" />
<path d="M5300 21075
L31300 21075
" />
<path d="M5300 75
L5300 21075
" />
</g>
<g style="fill:#000000; fill-opacity:0.0; 
stroke:#000000; stroke-width:600; stroke-opacity:1; 
stroke-linecap:round; stroke-linejoin:round;">
<path d="M23300 875
L23300 1275
" />
<path d="M24300 875
L24300 1275
" />
<path d="M25300 875
L25300 1275
" />
<path d="M26300 875
L26300 1275
" />
<path d="M27300 875
L27300 1275
" />
<path d="M28300 875
L28300 1275
" />
<path d="M29300 875
L29300 1275
" />
<path d="M30300 875
L30300 1275
" />
<path d="M16300 19875
L16300 20275
" />
<path d="M17300 19875
L17300 20275
" />
<path d="M18300 19875
L18300 20275
" />
<path d="M19300 19875
L19300 20275
" />
<path d="M20300 19875
L20300 20275
" />
<path d="M21300 19875
L21300 20275
" />
<path d="M22300 19875
L22300 20275
" />
<path d="M23300 19875
L23300 20275
" />
<path d="M25300 19875
L25300 20275
" />
<path d="M27300 19875
L27300 20275
" />
<path d="M26300 19875
L26300 20275
" />
<path d="M28300 19875
L28300 20275
" />
<path d="M29300 19875
L29300 20275
" />
<path d="M30300 19875
L30300 20275
" />
<path d="M12700 875
L12700 1275
" />
<path d="M13700 875
L13700 1275
" />
<path d="M14700 875
L14700 1275
" />
<path d="M15700 875
L15700 1275
" />
<path d="M16700 875
L16700 1275
" />
<path d="M17700 875
L17700 1275
" />
<path d="M18700 875
L18700 1275
" />
<path d="M19700 875
L19700 1275
" />
<path d="M20700 875
L20700 1275
" />
<path d="M21700 875
L21700 1275
" />
</g>
<g style="fill:#000000; fill-opacity:0.0; 
stroke:#000000; stroke-width:39.3701; stroke-opacity:1; 
stroke-linecap:round; stroke-linejoin:round;">
</g>
<g style="fill:#000000; fill-opacity:1.0; 
stroke:#000000; stroke-width:39.3701; stroke-opacity:1; 
stroke-linecap:round; stroke-linejoin:round;">
<polyline style="fill-rule:evenodd;"
points="27693,14681
27693,15468
26906,15468
26906,14681
27693,14681
" /> 
<circle cx="26300" cy="15075" r="393.701" /> 
<circle cx="25300" cy="15075" r="393.701" /> 
<circle cx="25300" cy="16075" r="393.701" /> 
<circle cx="27300" cy="16075" r="393.701" /> 
<circle cx="26300" cy="16075" r="393.701" /> 
<polyline style="fill-rule:evenodd;"
points="19693,14681
19693,15468
18906,15468
18906,14681
19693,14681
" /> 
<circle cx="18300" cy="15075" r="393.701" /> 
<circle cx="17300" cy="15075" r="393.701" /> 
<circle cx="17300" cy="16075" r="393.701" /> 
<circle cx="19300" cy="16075" r="393.701" /> 
<circle cx="18300" cy="16075" r="393.701" /> 
<polyline style="fill-rule:evenodd;"
points="12193,14681
12193,15468
11406,15468
11406,14681
12193,14681
" /> 
<circle cx="10800" cy="15075" r="393.701" /> 
<circle cx="9800" cy="15075" r="393.701" /> 
<circle cx="9800" cy="16075" r="393.701" /> 
<circle cx="11800" cy="16075" r="393.701" /> 
<circle cx="10800" cy="16075" r="393.701" /> 
<polyline style="fill-rule:evenodd;"
points="27906,6468
27906,5681
28693,5681
28693,6468
27906,6468
" /> 
<circle cx="29300" cy="6075" r="393.701" /> 
<circle cx="30300" cy="6075" r="393.701" /> 
<circle cx="30300" cy="5075" r="393.701" /> 
<circle cx="28300" cy="5075" r="393.701" /> 
<circle cx="29300" cy="5075" r="393.701" /> 
<polyline style="fill-rule:evenodd;"
points="22906,6468
22906,5681
23693,5681
23693,6468
22906,6468
" /> 
<circle cx="24300" cy="6075" r="393.701" /> 
<circle cx="25300" cy="6075" r="393.701" /> 
<circle cx="25300" cy="5075" r="393.701" /> 
<circle cx="23300" cy="5075" r="393.701" /> 
<circle cx="24300" cy="5075" r="393.701" /> 
<polyline style="fill-rule:evenodd;"
points="17406,6468
17406,5681
18193,5681
18193,6468
17406,6468
" /> 
<circle cx="18800" cy="6075" r="393.701" /> 
<circle cx="19800" cy="6075" r="393.701" /> 
<circle cx="19800" cy="5075" r="393.701" /> 
<circle cx="17800" cy="5075" r="393.701" /> 
<circle cx="18800" cy="5075" r="393.701" /> 
<polyline style="fill-rule:evenodd;"
points="12406,6468
12406,5681
13193,5681
13193,6468
12406,6468
" /> 
<circle cx="13800" cy="6075" r="393.701" /> 
<circle cx="14800" cy="6075" r="393.701" /> 
<circle cx="14800" cy="5075" r="393.701" /> 
<circle cx="12800" cy="5075" r="393.701" /> 
<circle cx="13800" cy="5075" r="393.701" /> 
<polyline style="fill-rule:evenodd;"
points="7406,6468
7406,5681
8193,5681
8193,6468
7406,6468
" /> 
<circle cx="8800" cy="6075" r="393.701" /> 
<circle cx="9800" cy="6075" r="393.701" /> 
<circle cx="9800" cy="5075" r="393.701" /> 
<circle cx="7800" cy="5075" r="393.701" /> 
<circle cx="8800" cy="5075" r="393.701" /> 
<polyline style="fill-rule:evenodd;"
points="9193,11968
8406,11968
8406,11181
9193,11181
9193,11968
" /> 
<circle cx="8800" cy="10575" r="393.701" /> 
<circle cx="8800" cy="9575" r="393.701" /> 
<circle cx="7800" cy="9575" r="393.701" /> 
<circle cx="7800" cy="11575" r="393.701" /> 
<circle cx="7800" cy="10575" r="393.701" /> 
<polyline style="fill-rule:evenodd;"
points="28906,10181
29693,10181
29693,10968
28906,10968
28906,10181
" /> 
<circle cx="29300" cy="11575" r="393.701" /> 
<circle cx="29300" cy="12575" r="393.701" /> 
<circle cx="30300" cy="12575" r="393.701" /> 
<circle cx="30300" cy="10575" r="393.701" /> 
<circle cx="30300" cy="11575" r="393.701" /> 
<circle cx="31300" cy="9075" r="155.315" /> 
<circle cx="18300" cy="19075" r="155.315" /> 
<circle cx="23300" cy="19075" r="155.315" /> 
<circle cx="18300" cy="18575" r="155.315" /> 
<circle cx="23300" cy="18575" r="155.315" /> 
<circle cx="18300" cy="18075" r="155.315" /> 
<circle cx="23300" cy="18075" r="155.315" /> 
<circle cx="19300" cy="17075" r="155.315" /> 
<circle cx="23300" cy="17575" r="155.315" /> 
<circle cx="29300" cy="9575" r="155.315" /> 
<circle cx="25300" cy="9575" r="155.315" /> 
<circle cx="25300" cy="12575" r="155.315" /> 
<circle cx="9800" cy="9575" r="155.315" /> 
<circle cx="9800" cy="12575" r="155.315" /> 
<circle cx="16800" cy="9575" r="155.315" /> 
<circle cx="17300" cy="12575" r="155.315" /> 
<circle cx="20300" cy="9575" r="155.315" /> 
<circle cx="20300" cy="12575" r="155.315" /> 
<circle cx="28300" cy="8575" r="155.315" /> 
<circle cx="26300" cy="8575" r="155.315" /> 
<circle cx="10800" cy="10575" r="155.315" /> 
<circle cx="10800" cy="12575" r="155.315" /> 
<circle cx="18300" cy="12575" r="155.315" /> 
<circle cx="26300" cy="10575" r="155.315" /> 
<circle cx="26300" cy="12575" r="155.315" /> 
<circle cx="8800" cy="7575" r="155.315" /> 
<circle cx="13800" cy="10575" r="155.315" /> 
<circle cx="13800" cy="8575" r="155.315" /> 
<circle cx="18800" cy="10575" r="155.315" /> 
<circle cx="18800" cy="8575" r="155.315" /> 
<circle cx="24300" cy="10575" r="155.315" /> 
<circle cx="24300" cy="8575" r="155.315" /> 
<circle cx="21300" cy="10575" r="155.315" /> 
<circle cx="21300" cy="12575" r="155.315" /> 
<circle cx="8800" cy="8575" r="155.315" /> 
<circle cx="12800" cy="11575" r="155.315" /> 
<circle cx="12800" cy="8575" r="155.315" /> 
<circle cx="17800" cy="11575" r="155.315" /> 
<circle cx="17800" cy="8575" r="155.315" /> 
<circle cx="23300" cy="11575" r="155.315" /> 
<circle cx="23300" cy="8575" r="155.315" /> 
</g>
<g style="fill:#000000; fill-opacity:1.0; 
stroke:#000000; stroke-width:236.22; stroke-opacity:1; 
stroke-linecap:round; stroke-linejoin:round;">
<path d="M30300 11575
L30800 11575
" />
<path d="M30800 11575
L31300 11075
" />
<path d="M31300 9075
L31300 11075
" />
<path d="M17700 1075
L17800 1175
" />
<path d="M7300 10575
L7800 10575
" />
<path d="M6800 10075
L7300 10575
" />
<path d="M6800 4075
L6800 10075
" />
<path d="M8300 2575
L6800 4075
" />
<path d="M17300 2575
L8300 2575
" />
<path d="M17800 2075
L17300 2575
" />
<path d="M17800 1175
L17800 2075
" />
<path d="M19700 1075
L19800 1175
" />
<path d="M8800 4575
L8800 5075
" />
<path d="M9300 4075
L8800 4575
" />
<path d="M12300 4075
L9300 4075
" />
<path d="M12800 3575
L12300 4075
" />
<path d="M16300 3575
L12800 3575
" />
<path d="M16800 3075
L16300 3575
" />
<path d="M19300 3075
L16800 3075
" />
<path d="M19800 2575
L19300 3075
" />
<path d="M19800 1175
L19800 2575
" />
<path d="M21700 1075
L21800 1175
" />
<path d="M21800 1175
L21800 3075
" />
<path d="M21800 3075
L21300 3575
" />
<path d="M21300 3575
L17300 3575
" />
<path d="M17300 3575
L16800 4075
" />
<path d="M16800 4075
L14300 4075
" />
<path d="M14300 4075
L13800 4575
" />
<path d="M13800 4575
L13800 5075
" />
<path d="M24300 1075
L24300 2575
" />
<path d="M18800 4575
L18800 5075
" />
<path d="M19300 4075
L18800 4575
" />
<path d="M22800 4075
L19300 4075
" />
<path d="M24300 2575
L22800 4075
" />
<path d="M25300 1075
L25300 3075
" />
<path d="M23300 4575
L23300 5075
" />
<path d="M24300 3575
L23300 4575
" />
<path d="M24800 3575
L24300 3575
" />
<path d="M25300 3075
L24800 3575
" />
<path d="M24300 5075
L24300 4575
" />
<path d="M26300 3575
L26300 1075
" />
<path d="M25800 4075
L26300 3575
" />
<path d="M24800 4075
L25800 4075
" />
<path d="M24300 4575
L24800 4075
" />
<path d="M28300 5075
L28300 3075
" />
<path d="M27300 2075
L27300 1075
" />
<path d="M28300 3075
L27300 2075
" />
<path d="M28300 1075
L28300 2075
" />
<path d="M29300 3075
L29300 5075
" />
<path d="M28300 2075
L29300 3075
" />
</g>
<g style="fill:#000000; fill-opacity:1.0; 
stroke:#000000; stroke-width:314.961; stroke-opacity:1; 
stroke-linecap:round; stroke-linejoin:round;">
<path d="M25300 20075
L25300 19575
" />
<path d="M10800 18075
L10800 16075
" />
<path d="M11800 19075
L10800 18075
" />
<path d="M18300 19075
L11800 19075
" />
<path d="M24800 19075
L23300 19075
" />
<path d="M25300 19575
L24800 19075
" />
<path d="M26300 20075
L26300 19075
" />
<path d="M11800 18075
L11800 16075
" />
<path d="M12300 18575
L11800 18075
" />
<path d="M18300 18575
L12300 18575
" />
<path d="M25800 18575
L23300 18575
" />
<path d="M26300 19075
L25800 18575
" />
<path d="M27300 20075
L27300 18575
" />
<path d="M18300 18075
L18300 16075
" />
<path d="M26800 18075
L23300 18075
" />
<path d="M27300 18575
L26800 18075
" />
<path d="M28300 20075
L28300 18075
" />
<path d="M19300 17075
L19300 16075
" />
<path d="M27800 17575
L23300 17575
" />
<path d="M28300 18075
L27800 17575
" />
</g>
<g style="fill:#000000; fill-opacity:1.0; 
stroke:#000000; stroke-width:590.551; stroke-opacity:1; 
stroke-linecap:round; stroke-linejoin:round;">
<path d="M24800 9575
L25300 9075
" />
<path d="M30300 6075
L30300 7575
" />
<path d="M29300 8575
L29300 9575
" />
<path d="M30300 7575
L29300 8575
" />
<path d="M10300 9575
L9800 9075
" />
<path d="M9800 9075
L9300 9575
" />
<path d="M19300 9575
L19800 9075
" />
<path d="M20300 9575
L20800 9575
" />
<path d="M19800 9075
L20300 9575
" />
<path d="M14300 9575
L14800 9075
" />
<path d="M14800 9075
L15300 9575
" />
<path d="M25300 15075
L25300 12575
" />
<path d="M9800 15075
L9800 12575
" />
<path d="M17300 15075
L17300 12575
" />
<path d="M9800 6075
L9800 9575
" />
<path d="M14800 6075
L14800 9575
" />
<path d="M19800 6075
L19800 9575
" />
<path d="M25300 6075
L25300 9075
" />
<path d="M25300 9075
L25300 9575
" />
<path d="M8800 9575
L9300 9575
" />
<path d="M9300 9575
L9800 9575
" />
<path d="M9800 9575
L10300 9575
" />
<path d="M10300 9575
L14300 9575
" />
<path d="M14300 9575
L14800 9575
" />
<path d="M14800 9575
L15300 9575
" />
<path d="M15300 9575
L16800 9575
" />
<path d="M16800 9575
L19300 9575
" />
<path d="M19300 9575
L19800 9575
" />
<path d="M19800 9575
L20800 9575
" />
<path d="M20800 9575
L24800 9575
" />
<path d="M24800 9575
L25300 9575
" />
<path d="M19300 20075
L19300 18575
" />
<path d="M20300 17575
L20300 12575
" />
<path d="M19300 18575
L20300 17575
" />
<path d="M25800 10575
L26300 10075
" />
<path d="M28300 8575
L28300 8075
" />
<path d="M28300 8075
L29300 7075
" />
<path d="M29300 7075
L29300 6075
" />
<path d="M26300 10075
L26300 8575
" />
<path d="M26300 10575
L26300 10075
" />
<path d="M10800 15075
L10800 12575
" />
<path d="M18300 15075
L18300 12575
" />
<path d="M26300 15075
L26300 12575
" />
<path d="M8800 6075
L8800 7575
" />
<path d="M13800 6075
L13800 8575
" />
<path d="M18800 6075
L18800 8575
" />
<path d="M24300 6075
L24300 8575
" />
<path d="M26300 10575
L25800 10575
" />
<path d="M25800 10575
L24300 10575
" />
<path d="M24300 10575
L21300 10575
" />
<path d="M21300 10575
L18800 10575
" />
<path d="M18800 10575
L13800 10575
" />
<path d="M13800 10575
L10800 10575
" />
<path d="M10800 10575
L8800 10575
" />
<path d="M20300 20075
L20300 19075
" />
<path d="M21300 18075
L21300 12575
" />
<path d="M20300 19075
L21300 18075
" />
</g>
<g style="fill:#000000; fill-opacity:1.0; 
stroke:#000000; stroke-width:314.961; stroke-opacity:1; 
stroke-linecap:round; stroke-linejoin:round;">
<path d="M29300 20075
L29300 17575
" />
<path d="M26300 16575
L26300 16075
" />
<path d="M26800 17075
L26300 16575
" />
<path d="M28800 17075
L26800 17075
" />
<path d="M29300 17575
L28800 17075
" />
<path d="M30300 20075
L30300 17575
" />
<path d="M28800 16075
L27300 16075
" />
<path d="M30300 17575
L28800 16075
" />
</g>
<g style="fill:#000000; fill-opacity:1.0; 
stroke:#000000; stroke-width:590.551; stroke-opacity:1; 
stroke-linecap:round; stroke-linejoin:round;">
<path d="M27800 10575
L29300 10575
" />
<path d="M27300 12075
L26800 11575
" />
<path d="M27300 10075
L27800 10575
" />
<path d="M27800 10575
L27300 11075
" />
<path d="M26800 11575
L27300 11075
" />
<path d="M27300 11575
L27300 11075
" />
<path d="M27300 11075
L27300 10575
" />
<path d="M27300 10575
L27300 10075
" />
<path d="M27300 10075
L27300 6575
" />
<path d="M27300 6575
L27800 6075
" />
<path d="M27800 6075
L28300 6075
" />
<path d="M11300 11575
L11800 12075
" />
<path d="M11800 12075
L12300 11575
" />
<path d="M18800 11575
L19300 12075
" />
<path d="M19800 11575
L20300 11575
" />
<path d="M19300 12075
L19800 11575
" />
<path d="M21800 11575
L22300 12075
" />
<path d="M22300 12075
L22800 11575
" />
<path d="M7800 6075
L7800 8075
" />
<path d="M7800 8075
L8300 8575
" />
<path d="M8300 8575
L8800 8575
" />
<path d="M12800 6075
L12800 8575
" />
<path d="M17800 6075
L17800 8575
" />
<path d="M23300 6075
L23300 8575
" />
<path d="M11800 15075
L11800 11575
" />
<path d="M19300 11575
L19300 15075
" />
<path d="M8800 11575
L11300 11575
" />
<path d="M11300 11575
L11800 11575
" />
<path d="M11800 11575
L12300 11575
" />
<path d="M12300 11575
L12800 11575
" />
<path d="M12800 11575
L17800 11575
" />
<path d="M17800 11575
L18800 11575
" />
<path d="M18800 11575
L19300 11575
" />
<path d="M19300 11575
L20300 11575
" />
<path d="M20300 11575
L21800 11575
" />
<path d="M21800 11575
L22300 11575
" />
<path d="M22300 11575
L22800 11575
" />
<path d="M22800 11575
L23300 11575
" />
<path d="M23300 11575
L26800 11575
" />
<path d="M26800 11575
L27300 11575
" />
<path d="M27300 11575
L27300 12075
" />
<path d="M27300 12075
L27300 15075
" />
<path d="M21300 20075
L22300 20075
" />
<path d="M22300 20075
L22300 11575
" />
</g>
<g style="fill:#FFFFFF; fill-opacity:1.0; 
stroke:#FFFFFF; stroke-width:39.3701; stroke-opacity:1; 
stroke-linecap:round; stroke-linejoin:round;">
<circle cx="31300" cy="9075" r="105.315" /> 
<circle cx="18300" cy="19075" r="105.315" /> 
<circle cx="23300" cy="19075" r="105.315" /> 
<circle cx="18300" cy="18575" r="105.315" /> 
<circle cx="23300" cy="18575" r="105.315" /> 
<circle cx="18300" cy="18075" r="105.315" /> 
<circle cx="23300" cy="18075" r="105.315" /> 
<circle cx="19300" cy="17075" r="105.315" /> 
<circle cx="23300" cy="17575" r="105.315" /> 
<circle cx="29300" cy="9575" r="105.315" /> 
<circle cx="25300" cy="9575" r="105.315" /> 
<circle cx="25300" cy="12575" r="105.315" /> 
<circle cx="9800" cy="9575" r="105.315" /> 
<circle cx="9800" cy="12575" r="105.315" /> 
<circle cx="16800" cy="9575" r="105.315" /> 
<circle cx="17300" cy="12575" r="105.315" /> 
<circle cx="20300" cy="9575" r="105.315" /> 
<circle cx="20300" cy="12575" r="105.315" /> 
<circle cx="28300" cy="8575" r="105.315" /> 
<circle cx="26300" cy="8575" r="105.315" /> 
<circle cx="10800" cy="10575" r="105.315" /> 
<circle cx="10800" cy="12575" r="105.315" /> 
<circle cx="18300" cy="12575" r="105.315" /> 
<circle cx="26300" cy="10575" r="105.315" /> 
<circle cx="26300" cy="12575" r="105.315" /> 
<circle cx="8800" cy="7575" r="105.315" /> 
<circle cx="13800" cy="10575" r="105.315" /> 
<circle cx="13800" cy="8575" r="105.315" /> 
<circle cx="18800" cy="10575" r="105.315" /> 
<circle cx="18800" cy="8575" r="105.315" /> 
<circle cx="24300" cy="10575" r="105.315" /> 
<circle cx="24300" cy="8575" r="105.315" /> 
<circle cx="21300" cy="10575" r="105.315" /> 
<circle cx="21300" cy="12575" r="105.315" /> 
<circle cx="8800" cy="8575" r="105.315" /> 
<circle cx="12800" cy="11575" r="105.315" /> 
<circle cx="12800" cy="8575" r="105.315" /> 
<circle cx="17800" cy="11575" r="105.315" /> 
<circle cx="17800" cy="8575" r="105.315" /> 
<circle cx="23300" cy="11575" r="105.315" /> 
<circle cx="23300" cy="8575" r="105.315" /> 
<circle cx="23300" cy="1075" r="181.315" /> 
<circle cx="24300" cy="1075" r="181.315" /> 
<circle cx="25300" cy="1075" r="181.315" /> 
<circle cx="26300" cy="1075" r="181.315" /> 
<circle cx="27300" cy="1075" r="181.315" /> 
<circle cx="28300" cy="1075" r="181.315" /> 
<circle cx="29300" cy="1075" r="181.315" /> 
<circle cx="30300" cy="1075" r="181.315" /> 
<circle cx="16300" cy="20075" r="181.315" /> 
<circle cx="17300" cy="20075" r="181.315" /> 
<circle cx="18300" cy="20075" r="181.315" /> 
<circle cx="19300" cy="20075" r="181.315" /> 
<circle cx="20300" cy="20075" r="181.315" /> 
<circle cx="21300" cy="20075" r="181.315" /> 
<circle cx="22300" cy="20075" r="181.315" /> 
<circle cx="23300" cy="20075" r="181.315" /> 
<circle cx="25300" cy="20075" r="181.315" /> 
<circle cx="27300" cy="20075" r="181.315" /> 
<circle cx="26300" cy="20075" r="181.315" /> 
<circle cx="28300" cy="20075" r="181.315" /> 
<circle cx="29300" cy="20075" r="181.315" /> 
<circle cx="30300" cy="20075" r="181.315" /> 
<circle cx="12700" cy="1075" r="181.315" /> 
<circle cx="13700" cy="1075" r="181.315" /> 
<circle cx="14700" cy="1075" r="181.315" /> 
<circle cx="15700" cy="1075" r="181.315" /> 
<circle cx="16700" cy="1075" r="181.315" /> 
<circle cx="17700" cy="1075" r="181.315" /> 
<circle cx="18700" cy="1075" r="181.315" /> 
<circle cx="19700" cy="1075" r="181.315" /> 
<circle cx="20700" cy="1075" r="181.315" /> 
<circle cx="21700" cy="1075" r="181.315" /> 
<circle cx="27300" cy="15075" r="177.165" /> 
<circle cx="26300" cy="15075" r="177.165" /> 
<circle cx="25300" cy="15075" r="177.165" /> 
<circle cx="25300" cy="16075" r="177.165" /> 
<circle cx="27300" cy="16075" r="177.165" /> 
<circle cx="26300" cy="16075" r="177.165" /> 
<circle cx="19300" cy="15075" r="177.165" /> 
<circle cx="18300" cy="15075" r="177.165" /> 
<circle cx="17300" cy="15075" r="177.165" /> 
<circle cx="17300" cy="16075" r="177.165" /> 
<circle cx="19300" cy="16075" r="177.165" /> 
<circle cx="18300" cy="16075" r="177.165" /> 
<circle cx="11800" cy="15075" r="177.165" /> 
<circle cx="10800" cy="15075" r="177.165" /> 
<circle cx="9800" cy="15075" r="177.165" /> 
<circle cx="9800" cy="16075" r="177.165" /> 
<circle cx="11800" cy="16075" r="177.165" /> 
<circle cx="10800" cy="16075" r="177.165" /> 
<circle cx="28300" cy="6075" r="177.165" /> 
<circle cx="29300" cy="6075" r="177.165" /> 
<circle cx="30300" cy="6075" r="177.165" /> 
<circle cx="30300" cy="5075" r="177.165" /> 
<circle cx="28300" cy="5075" r="177.165" /> 
<circle cx="29300" cy="5075" r="177.165" /> 
<circle cx="23300" cy="6075" r="177.165" /> 
<circle cx="24300" cy="6075" r="177.165" /> 
<circle cx="25300" cy="6075" r="177.165" /> 
<circle cx="25300" cy="5075" r="177.165" /> 
<circle cx="23300" cy="5075" r="177.165" /> 
<circle cx="24300" cy="5075" r="177.165" /> 
<circle cx="17800" cy="6075" r="177.165" /> 
<circle cx="18800" cy="6075" r="177.165" /> 
<circle cx="19800" cy="6075" r="177.165" /> 
<circle cx="19800" cy="5075" r="177.165" /> 
<circle cx="17800" cy="5075" r="177.165" /> 
<circle cx="18800" cy="5075" r="177.165" /> 
<circle cx="12800" cy="6075" r="177.165" /> 
<circle cx="13800" cy="6075" r="177.165" /> 
<circle cx="14800" cy="6075" r="177.165" /> 
<circle cx="14800" cy="5075" r="177.165" /> 
<circle cx="12800" cy="5075" r="177.165" /> 
<circle cx="13800" cy="5075" r="177.165" /> 
<circle cx="7800" cy="6075" r="177.165" /> 
<circle cx="8800" cy="6075" r="177.165" /> 
<circle cx="9800" cy="6075" r="177.165" /> 
<circle cx="9800" cy="5075" r="177.165" /> 
<circle cx="7800" cy="5075" r="177.165" /> 
<circle cx="8800" cy="5075" r="177.165" /> 
<circle cx="8800" cy="11575" r="177.165" /> 
<circle cx="8800" cy="10575" r="177.165" /> 
<circle cx="8800" cy="9575" r="177.165" /> 
<circle cx="7800" cy="9575" r="177.165" /> 
<circle cx="7800" cy="11575" r="177.165" /> 
<circle cx="7800" cy="10575" r="177.165" /> 
<circle cx="29300" cy="10575" r="177.165" /> 
<circle cx="29300" cy="11575" r="177.165" /> 
<circle cx="29300" cy="12575" r="177.165" /> 
<circle cx="30300" cy="12575" r="177.165" /> 
<circle cx="30300" cy="10575" r="177.165" /> 
<circle cx="30300" cy="11575" r="177.165" /> 
</g> 
</svg>
